<svg xmlns="http://www.w3.org/2000/svg" xmlns:xlink="http://www.w3.org/1999/xlink" width="32" height="32" viewBox="0 0 32 32">
  <defs>
    <clipPath id="clip-path">
      <rect id="Rectangle_152" data-name="Rectangle 152" width="32" height="32" transform="translate(6436 452)" fill="#fff"/>
    </clipPath>
  </defs>
  <g id="Mask_Group_71" data-name="Mask Group 71" transform="translate(-6436 -452)" clip-path="url(#clip-path)">
    <g id="surface1" transform="translate(6433.818 449.818)">
      <path id="Path_98" data-name="Path 98" d="M33.455,14.545a.727.727,0,0,0,.727-.727V10.909a.727.727,0,0,0-.727-.727H26.182V2.909a.727.727,0,0,0-.727-.727H22.545a.727.727,0,0,0-.727.727v7.273H14.545V2.909a.729.729,0,0,0-.727-.727H10.909a.729.729,0,0,0-.727.727v7.273H2.909a.729.729,0,0,0-.727.727v2.909a.729.729,0,0,0,.727.727h7.273v7.273H2.909a.727.727,0,0,0-.727.727v2.909a.727.727,0,0,0,.727.727h7.273v7.273a.727.727,0,0,0,.727.727h2.909a.727.727,0,0,0,.727-.727V26.182h7.273v7.273a.725.725,0,0,0,.727.727h2.909a.725.725,0,0,0,.727-.727V26.182h7.273a.725.725,0,0,0,.727-.727V22.545a.725.725,0,0,0-.727-.727H26.182V14.545ZM21.818,21.818H14.545V14.545h7.273Z" fill="#f6f8f9"/>
    </g>
  </g>
</svg>
