<?xml version="1.0" encoding="utf-8"?>
<!-- Generator: Adobe Illustrator 23.0.2, SVG Export Plug-In . SVG Version: 6.00 Build 0)  -->
<svg version="1.1" id="Layer_1" xmlns="http://www.w3.org/2000/svg" xmlns:xlink="http://www.w3.org/1999/xlink" x="0px" y="0px"
	 viewBox="0 0 18 18" style="enable-background:new 0 0 18 18;" xml:space="preserve">
<style type="text/css">
	.st0{fill:#F7F7FB;}
	.st1{fill:#457AFB;}
	.st2{fill:#DFE0E4;}
	.st3{fill:#1E1E1E;}
</style>
<g>
	<g id="Mask_Group_7" transform="translate(-2144 242)">
		<g id="icons8-moleskine" transform="translate(2142.345 -243.655)">
			<path id="Path_13" class="st0" d="M4.3,19.2h12.4c0.4,0,0.8-0.3,0.8-0.8l0,0v-14c0-0.4-0.3-0.8-0.8-0.8l0,0H4.3
				c-0.4,0-0.8,0.3-0.8,0.8l0,0v14C3.5,18.9,3.9,19.2,4.3,19.2L4.3,19.2"/>
			<path id="Path_14" class="st1" d="M13.9,14.4H7.1c-0.3,0-0.5,0.2-0.5,0.4c0,0.3,0.2,0.5,0.4,0.5l0,0h6.8c0.3,0,0.5-0.2,0.4-0.5
				C14.4,14.6,14.2,14.4,13.9,14.4"/>
			<path id="Path_15" class="st2" d="M13.9,11.6H7.1c-0.3,0-0.5,0.2-0.5,0.4c0,0.3,0.2,0.5,0.4,0.5l0,0h6.8c0.3,0,0.5-0.2,0.4-0.5
				C14.4,11.8,14.2,11.6,13.9,11.6"/>
			<path id="Path_16" class="st2" d="M13.9,8.8H7.1C6.8,8.8,6.6,9,6.6,9.3c0,0.2,0.2,0.4,0.4,0.4h6.8c0.3,0,0.5-0.2,0.4-0.5
				C14.4,9,14.2,8.8,13.9,8.8"/>
			<path id="Path_17" class="st3" d="M14.7,2.1v1.6h-0.9V2.1c0-0.3,0.2-0.5,0.4-0.5C14.5,1.6,14.7,1.8,14.7,2.1L14.7,2.1L14.7,2.1z"
				/>
			<path id="Path_18" class="st3" d="M7.6,2.1v1.6h-1V2.1c0-0.3,0.2-0.5,0.5-0.4C7.3,1.7,7.5,1.9,7.6,2.1z"/>
			<path id="Path_19" class="st3" d="M16.9,3.2H4.4c-0.7,0-1.2,0.6-1.2,1.2v14c0,0.7,0.6,1.2,1.2,1.2h12.4c0.7,0,1.2-0.6,1.2-1.2
				v-14C18.1,3.8,17.5,3.2,16.9,3.2z M17.2,18.4c0,0.2-0.1,0.3-0.3,0.3H4.4c-0.2,0-0.3-0.1-0.3-0.3v-14c0-0.2,0.1-0.3,0.3-0.3h12.4
				c0.2,0,0.3,0.1,0.3,0.3v14H17.2z"/>
		</g>
	</g>
</g>
</svg>
