<svg xmlns="http://www.w3.org/2000/svg" xmlns:xlink="http://www.w3.org/1999/xlink" width="136" height="136" viewBox="0 0 136 136">
  <defs>
    <clipPath id="clip-path">
      <rect id="Rectangle_223" data-name="Rectangle 223" width="136" height="136" transform="translate(11085 65)" fill="#fff" stroke="#707070" stroke-width="1"/>
    </clipPath>
  </defs>
  <g id="Mask_Group_91" data-name="Mask Group 91" transform="translate(-11085 -65)" clip-path="url(#clip-path)">
    <g id="icons8-sun" transform="translate(11085 65)">
      <g id="Group_225" data-name="Group 225" transform="translate(0 0)">
        <path id="Path_197" data-name="Path 197" d="M65.2,121.483l-.888-.154a48.468,48.468,0,0,1-8.146-2.19l-.845-.3-14.405,9.509,1.031-17.193-.684-.58a49.715,49.715,0,0,1-6-6l-.58-.687L17.5,104.916l9.509-14.4-.311-.848a48.731,48.731,0,0,1-2.187-8.146l-.157-.888L8.918,72.917,24.35,65.2l.157-.888a49.47,49.47,0,0,1,2.187-8.149L27,55.319l-9.509-14.4,17.2,1.031.58-.687a49.143,49.143,0,0,1,5.995-5.995l.684-.58L40.917,17.493,55.323,27l.841-.3a49.063,49.063,0,0,1,8.149-2.19l.888-.154L72.917,8.918,80.629,24.35l.888.154a48.625,48.625,0,0,1,8.149,2.19l.841.3,14.405-9.509-1.031,17.193.684.58a49.656,49.656,0,0,1,5.995,5.995l.58.687,17.2-1.031-9.509,14.4.308.845a48.769,48.769,0,0,1,2.187,8.149l.157.888,15.436,7.72-15.432,7.716-.157.888a49.332,49.332,0,0,1-2.187,8.146l-.308.845,9.509,14.4-17.193-1.031-.58.687a49.715,49.715,0,0,1-6,6l-.684.58,1.031,17.193-14.405-9.509-.845.3a48.9,48.9,0,0,1-8.146,2.19l-.888.154-7.716,15.436Z" transform="translate(-4.917 -4.917)" fill="#ffeea3"/>
        <path id="Path_198" data-name="Path 198" d="M72.211,12.213l5.712,11.424.805,1.611,1.772.315a47.069,47.069,0,0,1,7.849,2.108l1.693.612,1.5-.991,10.665-7.043-.762,12.723-.107,1.8,1.374,1.16a47.918,47.918,0,0,1,5.78,5.78l1.16,1.374,1.793-.107,12.723-.762-7.043,10.665-.991,1.5.612,1.693a47.069,47.069,0,0,1,2.108,7.849l.311,1.772,1.611.805,11.435,5.716-11.424,5.712-1.611.805-.311,1.772a47.069,47.069,0,0,1-2.108,7.849l-.612,1.689.991,1.5,7.043,10.665-12.723-.762-1.8-.107-1.16,1.374a47.661,47.661,0,0,1-5.78,5.78l-1.374,1.16.107,1.793.762,12.723-10.665-7.043-1.5-.991-1.693.612a47.069,47.069,0,0,1-7.849,2.108l-1.772.311-.805,1.611-5.719,11.438L66.5,120.784l-.805-1.611-1.772-.311a47.069,47.069,0,0,1-7.849-2.108l-1.693-.612-1.5.991-10.665,7.043.762-12.723.107-1.793-1.374-1.16a47.659,47.659,0,0,1-5.78-5.78l-1.16-1.374-1.8.107-12.723.762,7.043-10.665.991-1.5-.616-1.7A47.069,47.069,0,0,1,25.563,80.5l-.311-1.772-1.611-.805L12.213,72.211,23.637,66.5l1.611-.805.311-1.772a47.069,47.069,0,0,1,2.108-7.849l.612-1.693-.984-1.5L20.251,42.212l12.723.762,1.793.107,1.16-1.374a47.917,47.917,0,0,1,5.78-5.78l1.374-1.16-.107-1.8-.762-12.723,10.665,7.043,1.5.991,1.693-.612a47.069,47.069,0,0,1,7.849-2.108l1.772-.315.805-1.611,5.716-11.424m0-8L63.3,22.037a50.351,50.351,0,0,0-8.446,2.269L38.211,13.319,39.4,33.189A51.452,51.452,0,0,0,33.189,39.4L13.323,38.211,24.31,54.849A50.536,50.536,0,0,0,22.041,63.3L4.211,72.211l17.827,8.915a50.351,50.351,0,0,0,2.269,8.446L13.323,106.211l19.87-1.192a51.452,51.452,0,0,0,6.213,6.213l-1.2,19.867,16.639-10.987A50.533,50.533,0,0,0,63.3,122.38l8.915,17.83,8.915-17.827a50.352,50.352,0,0,0,8.446-2.269L106.211,131.1l-1.192-19.87a51.452,51.452,0,0,0,6.213-6.213l19.87,1.192L120.115,89.572a50.534,50.534,0,0,0,2.269-8.446l17.827-8.915L122.384,63.3a50.352,50.352,0,0,0-2.269-8.446L131.1,38.211,111.232,39.4a51.452,51.452,0,0,0-6.213-6.213l1.192-19.87L89.572,24.306a50.882,50.882,0,0,0-8.446-2.269L72.211,4.211Z" transform="translate(-4.211 -4.211)" fill="#ba9b48"/>
      </g>
      <circle id="Ellipse_61" data-name="Ellipse 61" cx="35.789" cy="35.789" r="35.789" transform="translate(32.211 32.211)" fill="#f5ce85"/>
    </g>
  </g>
</svg>
