<svg xmlns="http://www.w3.org/2000/svg" xmlns:xlink="http://www.w3.org/1999/xlink" width="136" height="136" viewBox="0 0 136 136">
  <defs>
    <clipPath id="clip-path">
      <rect id="Rectangle_229" data-name="Rectangle 229" width="136" height="136" transform="translate(11085 78)" fill="#fff" stroke="#707070" stroke-width="1"/>
    </clipPath>
  </defs>
  <g id="Mask_Group_92" data-name="Mask Group 92" transform="translate(-11085 -78)" clip-path="url(#clip-path)">
    <g id="icons8-sun" transform="translate(11085 78)">
      <circle id="Ellipse_62" data-name="Ellipse 62" cx="44.625" cy="44.625" r="44.625" transform="translate(15.499 103.001) rotate(-78.69)" fill="#f9e3ae"/>
      <path id="Path_199" data-name="Path 199" d="M83.123,28.37a44.476,44.476,0,0,0-38.5,10.5,6.375,6.375,0,0,0,.553,10.009h0a6.375,6.375,0,0,0,7.948-.51,31.875,31.875,0,0,1,50.426,11.008,6.375,6.375,0,0,0,7.607,3.7h0a6.375,6.375,0,0,0,4.25-8.5A44.5,44.5,0,0,0,83.123,28.37Z" transform="translate(-6.368 -4.124)" fill="#faefde"/>
      <path id="Path_200" data-name="Path 200" d="M56.419,122.177a44.476,44.476,0,0,0,39.674-3.953,6.375,6.375,0,0,0,1.126-9.966h0a6.375,6.375,0,0,0-7.884-.829,31.875,31.875,0,0,1-47.9-19.252,6.375,6.375,0,0,0-6.885-4.909h0a6.375,6.375,0,0,0-5.5,7.693,44.5,44.5,0,0,0,27.37,31.216Z" transform="translate(-4.335 -12.485)" fill="#f6d397"/>
      <path id="Path_201" data-name="Path 201" d="M71.75,25A46.75,46.75,0,1,0,118.5,71.75,46.75,46.75,0,0,0,71.75,25Zm0,89.25a42.5,42.5,0,1,1,42.5-42.5,42.5,42.5,0,0,1-42.5,42.5Z" transform="translate(-3.75 -3.75)" fill="#8d6c9f"/>
      <path id="Path_202" data-name="Path 202" d="M104.574,48.854a2.125,2.125,0,1,0-2.677,3.294,30.069,30.069,0,0,1,3.23,3.039,2.128,2.128,0,0,0,3.145-2.869,34.424,34.424,0,0,0-3.7-3.464Z" transform="translate(-15.154 -7.246)" fill="#8d6c9f"/>
      <path id="Path_203" data-name="Path 203" d="M54.372,52.575a2.125,2.125,0,0,0,1.424-.553,29.75,29.75,0,0,1,30.855-5.631A2.125,2.125,0,0,0,88.2,42.439a34,34,0,0,0-35.275,6.545,2.125,2.125,0,0,0,1.424,3.7Z" transform="translate(-7.835 -6.016)" fill="#8d6c9f"/>
      <path id="Path_204" data-name="Path 204" d="M79.625,17a2.125,2.125,0,0,0,2.125-2.125V2.125a2.125,2.125,0,1,0-4.25,0v12.75A2.125,2.125,0,0,0,79.625,17Z" transform="translate(-11.625)" fill="#8d6c9f"/>
      <path id="Path_205" data-name="Path 205" d="M79.625,140a2.125,2.125,0,0,0-2.125,2.125v12.75a2.125,2.125,0,0,0,4.25,0v-12.75A2.125,2.125,0,0,0,79.625,140Z" transform="translate(-11.625 -21)" fill="#8d6c9f"/>
      <path id="Path_206" data-name="Path 206" d="M17,79.625A2.125,2.125,0,0,0,14.875,77.5H2.125a2.125,2.125,0,0,0,0,4.25h12.75A2.125,2.125,0,0,0,17,79.625Z" transform="translate(0 -11.625)" fill="#8d6c9f"/>
      <path id="Path_207" data-name="Path 207" d="M154.875,77.5h-12.75a2.125,2.125,0,0,0,0,4.25h12.75a2.125,2.125,0,0,0,0-4.25Z" transform="translate(-21 -11.625)" fill="#8d6c9f"/>
      <path id="Path_208" data-name="Path 208" d="M53.676,21.047a2.125,2.125,0,1,0,3.931-1.594l-3.187-7.884a2.125,2.125,0,1,0-3.931,1.594Z" transform="translate(-7.542 -1.518)" fill="#8d6c9f"/>
      <path id="Path_209" data-name="Path 209" d="M104.994,136.769a2.125,2.125,0,1,0-3.931,1.594l3.188,7.884a2.125,2.125,0,1,0,3.931-1.594Z" transform="translate(-15.128 -20.298)" fill="#8d6c9f"/>
      <path id="Path_210" data-name="Path 210" d="M22.241,102.266a2.125,2.125,0,0,0-2.762-1.169l-7.884,3.188a2.125,2.125,0,1,0,1.594,3.931l7.884-3.187a2.125,2.125,0,0,0,1.169-2.763Z" transform="translate(-1.522 -15.141)" fill="#8d6c9f"/>
      <path id="Path_211" data-name="Path 211" d="M135.6,56.43A2.125,2.125,0,0,0,138.36,57.6l7.884-3.187a2.125,2.125,0,0,0-1.594-3.931l-7.884,3.188A2.125,2.125,0,0,0,135.6,56.43Z" transform="translate(-20.316 -7.555)" fill="#8d6c9f"/>
      <path id="Path_212" data-name="Path 212" d="M102.266,22.241a2.125,2.125,0,0,0,2.763-1.169l3.188-7.884a2.125,2.125,0,1,0-3.931-1.594L101.1,19.478a2.125,2.125,0,0,0,1.169,2.763Z" transform="translate(-15.141 -1.522)" fill="#8d6c9f"/>
      <path id="Path_213" data-name="Path 213" d="M56.413,135.6a2.125,2.125,0,0,0-2.762,1.169l-3.187,7.884a2.125,2.125,0,1,0,3.931,1.594l3.188-7.884a2.125,2.125,0,0,0-1.169-2.762Z" transform="translate(-7.538 -20.316)" fill="#8d6c9f"/>
      <path id="Path_214" data-name="Path 214" d="M146.264,104.268l-7.884-3.187a2.125,2.125,0,0,0-1.594,3.931l7.884,3.188a2.125,2.125,0,0,0,1.594-3.931Z" transform="translate(-20.337 -15.145)" fill="#8d6c9f"/>
      <path id="Path_215" data-name="Path 215" d="M11.637,54.437l7.884,3.188a2.125,2.125,0,0,0,1.594-3.931l-7.884-3.187a2.125,2.125,0,0,0-1.594,3.931Z" transform="translate(-1.564 -7.559)" fill="#8d6c9f"/>
      <path id="Path_216" data-name="Path 216" d="M32.37,35.3A2.125,2.125,0,0,0,35.3,32.366l-8.946-9.031a2.125,2.125,0,0,0-3,3Z" transform="translate(-3.427 -3.424)" fill="#8d6c9f"/>
      <path id="Path_217" data-name="Path 217" d="M125.374,122.442a2.125,2.125,0,0,0-2.933,2.933l9.01,9.01a2.125,2.125,0,0,0,3-3Z" transform="translate(-18.317 -18.317)" fill="#8d6c9f"/>
      <path id="Path_218" data-name="Path 218" d="M32.325,122.442l-9.031,8.946a2.125,2.125,0,1,0,3,3l8.967-9.01a2.125,2.125,0,0,0-2.932-2.933Z" transform="translate(-3.383 -18.317)" fill="#8d6c9f"/>
      <path id="Path_219" data-name="Path 219" d="M123.834,35.982a2.125,2.125,0,0,0,1.509-.616l9.01-9.01a2.125,2.125,0,0,0-3-3l-8.967,9.01A2.125,2.125,0,0,0,123.9,36Z" transform="translate(-18.264 -3.427)" fill="#8d6c9f"/>
      <path id="Path_220" data-name="Path 220" d="M79.625,110a2.125,2.125,0,0,0-2.125,2.125v4.25a2.125,2.125,0,0,0,4.25,0v-4.25A2.125,2.125,0,0,0,79.625,110Z" transform="translate(-11.625 -16.5)" fill="#8d6c9f"/>
      <path id="Path_221" data-name="Path 221" d="M93.77,108.944a2.125,2.125,0,1,0-3.931,1.594l1.594,3.931a2.125,2.125,0,1,0,3.931-1.594Z" transform="translate(-13.444 -16.124)" fill="#8d6c9f"/>
      <path id="Path_222" data-name="Path 222" d="M67.944,107.8a2.125,2.125,0,0,0-2.762,1.169L63.588,112.9a2.125,2.125,0,1,0,3.931,1.594l1.594-3.931A2.125,2.125,0,0,0,67.944,107.8Z" transform="translate(-9.507 -16.146)" fill="#8d6c9f"/>
      <path id="Path_223" data-name="Path 223" d="M54.59,101.135l-3,3a2.125,2.125,0,1,0,3,3l3-3a2.125,2.125,0,0,0-3-3Z" transform="translate(-7.628 -15.094)" fill="#8d6c9f"/>
      <path id="Path_224" data-name="Path 224" d="M51.077,91.5a2.125,2.125,0,0,0-2.784-1.126l-3.91,1.657a2.125,2.125,0,1,0,1.658,3.91l3.8-1.658A2.125,2.125,0,0,0,51.077,91.5Z" transform="translate(-6.452 -13.53)" fill="#8d6c9f"/>
    </g>
  </g>
</svg>
