<svg xmlns="http://www.w3.org/2000/svg" xmlns:xlink="http://www.w3.org/1999/xlink" width="32" height="32" viewBox="0 0 32 32">
  <defs>
    <clipPath id="clip-path">
      <rect id="Rectangle_132" data-name="Rectangle 132" width="32" height="32" transform="translate(4076 2131)" fill="#fff" stroke="#707070" stroke-width="1"/>
    </clipPath>
  </defs>
  <g id="Mask_Group_57" data-name="Mask Group 57" transform="translate(-4076 -2131)" clip-path="url(#clip-path)">
    <g id="icons8-light_off" transform="translate(4072.8 2126.2)">
      <path id="Path_79" data-name="Path 79" d="M30.4,16a11.2,11.2,0,1,0-17.92,8.96l.08.08a4.586,4.586,0,0,1,1.84,3.6v.16H24v-.08a4.626,4.626,0,0,1,1.76-3.6c.08,0,.08-.08.16-.08A11.367,11.367,0,0,0,30.4,16Z" fill="#b3e5fc"/>
      <path id="Path_80" data-name="Path 80" d="M18.4,29.6V19.04a1.137,1.137,0,0,0-.16-.48L15.6,15.2l1.2-.8,1.92,1.28a.867.867,0,0,0,.88,0l2-1.28,1.2.8-2.64,3.28a1.137,1.137,0,0,0-.16.48V29.6" fill="#64b5f6"/>
      <path id="Path_81" data-name="Path 81" d="M20.8,35.2H17.6A3.209,3.209,0,0,1,14.4,32V28H24v4a3.209,3.209,0,0,1-3.2,3.2" fill="#9fa8da"/>
      <path id="Path_82" data-name="Path 82" d="M21.44,35.12a2.333,2.333,0,0,1-4.48,0,1.56,1.56,0,0,0,.64.08h3.2A1.56,1.56,0,0,0,21.44,35.12ZM24,32l-9.28,1.28A3.178,3.178,0,0,0,16,34.72l7.52-1.04A2.958,2.958,0,0,0,24,32m-9.6-1.84v1.6L24,30.4V28.8Z" fill="#5c6bc0"/>
      <g id="Group_125" data-name="Group 125">
        <path id="Path_83" data-name="Path 83" d="M11.12,18.4a3.285,3.285,0,0,1-.32-.72c-.08-.24-.16-.48-.24-.8a4.682,4.682,0,0,1-.16-1.04V15.2a1.761,1.761,0,0,1,.08-.64,4.672,4.672,0,0,1,.32-1.44l.24-.72a2.842,2.842,0,0,1,.32-.72,7.926,7.926,0,0,1,.88-1.36,8.485,8.485,0,0,1,1.2-1.2c.24-.16.4-.32.64-.48s.48-.24.72-.4A5.37,5.37,0,0,1,16,7.76a7.2,7.2,0,0,1,1.28-.24,5.242,5.242,0,0,1,1.12,0,2.876,2.876,0,0,1,.88.16,3.2,3.2,0,0,1,.72.24v.16s-.24.08-.56.16a3.719,3.719,0,0,1-.72.24c-.24.08-.56.24-.88.32a5.377,5.377,0,0,0-.96.48c-.32.24-.72.4-1.04.64a4.641,4.641,0,0,0-.96.8,9.588,9.588,0,0,0-.88.96,9.055,9.055,0,0,0-.8,1.04c-.24.4-.4.8-.64,1.12-.16.4-.32.72-.48,1.12A7.43,7.43,0,0,0,11.76,16c-.16.64-.32,1.2-.4,1.6a3.624,3.624,0,0,0-.08.64Z" fill="#fff"/>
      </g>
    </g>
  </g>
</svg>
