<svg xmlns="http://www.w3.org/2000/svg" xmlns:xlink="http://www.w3.org/1999/xlink" width="136" height="136" viewBox="0 0 136 136">
  <defs>
    <clipPath id="clip-path">
      <rect id="Rectangle_210" data-name="Rectangle 210" width="136" height="136" transform="translate(11085 -232)" fill="#fff" stroke="#707070" stroke-width="1"/>
    </clipPath>
  </defs>
  <g id="Mask_Group_88" data-name="Mask Group 88" transform="translate(-11085 232)" clip-path="url(#clip-path)">
    <g id="icons8-moon" transform="translate(11085.004 -232)">
      <g id="Group_208" data-name="Group 208" transform="translate(0 0.007)">
        <path id="Path_173" data-name="Path 173" d="M72.522,138.73a66.133,66.133,0,0,1-50.851-108.5A8.833,8.833,0,0,0,26,31.367a8.957,8.957,0,0,0,8.947-8.947,8.828,8.828,0,0,0-.83-3.736A65.522,65.522,0,0,1,72.522,6.315,66.282,66.282,0,0,1,138.73,72.522a65.514,65.514,0,0,1-5.751,26.848,8.96,8.96,0,0,0-8.564,8.94,8.829,8.829,0,0,0,.948,3.99A66.43,66.43,0,0,1,72.522,138.73Z" transform="translate(-4.526 -4.526)" fill="#e1ebf2"/>
        <path id="Path_174" data-name="Path 174" d="M72.207,7.789a64.492,64.492,0,0,1,64.418,64.418,63.652,63.652,0,0,1-5.182,25.169,10.753,10.753,0,0,0-9.133,10.618,10.611,10.611,0,0,0,.676,3.74A64.353,64.353,0,1,1,21.861,32.121a10.563,10.563,0,0,0,3.822.719A10.749,10.749,0,0,0,36.419,22.1a10.561,10.561,0,0,0-.454-3.071A63.734,63.734,0,0,1,72.207,7.789m0-3.579A67.592,67.592,0,0,0,31.438,17.881a7.127,7.127,0,0,1-10.393,9.634A67.935,67.935,0,1,0,127.191,112.1a7.145,7.145,0,0,1,5.855-11.259,7.246,7.246,0,0,1,.737.075A67.884,67.884,0,0,0,72.207,4.21Z" transform="translate(-4.21 -4.21)" fill="#a3b7cc"/>
      </g>
      <g id="Group_209" data-name="Group 209" transform="translate(32.209 82.319)">
        <circle id="Ellipse_53" data-name="Ellipse 53" cx="10.736" cy="10.736" r="10.736" transform="translate(1.789 1.789)" fill="#b0c1d4"/>
        <path id="Path_175" data-name="Path 175" d="M54.629,104.626a8.947,8.947,0,1,1-8.947,8.947,8.957,8.957,0,0,1,8.947-8.947m0-3.579a12.526,12.526,0,1,0,12.526,12.526,12.526,12.526,0,0,0-12.526-12.526Z" transform="translate(-42.103 -101.047)" fill="#a3b7cc"/>
      </g>
      <g id="Group_210" data-name="Group 210" transform="translate(64.418 46.531)">
        <circle id="Ellipse_54" data-name="Ellipse 54" cx="8.947" cy="8.947" r="8.947" transform="translate(1.789 1.789)" fill="#b0c1d4"/>
        <path id="Path_176" data-name="Path 176" d="M90.732,62.523a7.158,7.158,0,1,1-7.158,7.158,7.165,7.165,0,0,1,7.158-7.158m0-3.579a10.736,10.736,0,1,0,10.736,10.736A10.736,10.736,0,0,0,90.732,58.944Z" transform="translate(-79.996 -58.944)" fill="#a3b7cc"/>
      </g>
      <g id="Group_211" data-name="Group 211" transform="translate(28.63 39.374)">
        <circle id="Ellipse_55" data-name="Ellipse 55" cx="5.368" cy="5.368" r="5.368" transform="translate(1.789 1.789)" fill="#b0c1d4"/>
        <path id="Path_177" data-name="Path 177" d="M45.05,54.1a3.579,3.579,0,1,1-3.579,3.579A3.585,3.585,0,0,1,45.05,54.1m0-3.579a7.158,7.158,0,1,0,7.158,7.158,7.156,7.156,0,0,0-7.158-7.158Z" transform="translate(-37.893 -50.524)" fill="#a3b7cc"/>
      </g>
      <path id="Path_178" data-name="Path 178" d="M133.865,107.993a6.837,6.837,0,0,1,7.891-7.082A67.858,67.858,0,0,0,57.391,8.2,64.4,64.4,0,0,1,106.574,41a8.914,8.914,0,1,1,6.385,16.541c.3,1.31.565,2.638.8,3.976.143-.011.279-.043.426-.043a5.353,5.353,0,0,1,.522,10.683v.054a64.411,64.411,0,0,1-57.285,64,67.611,67.611,0,0,0,77.741-24.117A7.149,7.149,0,0,1,133.865,107.993Z" transform="translate(-12.187 -4.202)" fill="#a3b7cc"/>
    </g>
  </g>
</svg>
