<svg xmlns="http://www.w3.org/2000/svg" xmlns:xlink="http://www.w3.org/1999/xlink" width="32" height="32" viewBox="0 0 32 32">
  <defs>
    <clipPath id="clip-path">
      <rect id="Rectangle_121" data-name="Rectangle 121" width="32" height="32" transform="translate(-2322 -361)" fill="#fff" stroke="#707070" stroke-width="1"/>
    </clipPath>
  </defs>
  <g id="Mask_Group_49" data-name="Mask Group 49" transform="translate(2322 361)" clip-path="url(#clip-path)">
    <g id="icons8-visible" transform="translate(-2322 -361)">
      <g id="Group_111" data-name="Group 111">
        <path id="Path_69" data-name="Path 69" d="M16,26C8.19,26,1.6,17.509.493,16,1.6,14.492,8.2,6,16,6s14.4,8.491,15.507,10C30.4,17.508,23.8,26,16,26Z" fill="#fff"/>
        <g id="Group_110" data-name="Group 110">
          <path id="Path_70" data-name="Path 70" d="M16,6.4c7.278,0,13.525,7.638,15.008,9.6-1.483,1.962-7.73,9.6-15.008,9.6S2.475,17.962.992,16C2.475,14.038,8.722,6.4,16,6.4m0-.8C7.163,5.6,0,16,0,16S7.163,26.4,16,26.4,32,16,32,16,24.837,5.6,16,5.6Z" fill="#4788c7"/>
        </g>
      </g>
      <g id="Group_112" data-name="Group 112">
        <circle id="Ellipse_29" data-name="Ellipse 29" cx="8" cy="8" r="8" transform="translate(8 8)" fill="#98ccfd"/>
      </g>
      <circle id="Ellipse_30" data-name="Ellipse 30" cx="3.2" cy="3.2" r="3.2" transform="translate(12.8 12.8)" fill="#4788c7"/>
      <circle id="Ellipse_31" data-name="Ellipse 31" cx="1.6" cy="1.6" r="1.6" transform="translate(16.8 11.2)" fill="#dff0fe"/>
    </g>
  </g>
</svg>
